<svg id="visual" viewBox="0 0 960 540" width="960" height="540" xmlns="http://www.w3.org/2000/svg" xmlns:xlink="http://www.w3.org/1999/xlink" version="1.1"><rect x="0" y="0" width="960" height="540" fill="#ffffff"></rect><defs><linearGradient id="grad1_0" x1="43.8%" y1="0%" x2="100%" y2="100%"><stop offset="14.444444444444446%" stop-color="#ffffff" stop-opacity="1"></stop><stop offset="85.55555555555554%" stop-color="#ffffff" stop-opacity="1"></stop></linearGradient></defs><defs><linearGradient id="grad2_0" x1="0%" y1="0%" x2="56.3%" y2="100%"><stop offset="14.444444444444446%" stop-color="#ffffff" stop-opacity="1"></stop><stop offset="85.55555555555554%" stop-color="#ffffff" stop-opacity="1"></stop></linearGradient></defs><g transform="translate(960, 0)"><path d="M0 189C-21.1 176.1 -42.1 163.2 -63.9 154.3C-85.7 145.4 -108.2 140.6 -128 128C-147.8 115.4 -164.9 95 -174.6 72.3C-184.3 49.7 -186.7 24.8 -189 0L0 0Z" fill="#17B978"></path></g><g transform="translate(0, 540)"><path d="M0 -189C22.4 -177.7 44.8 -166.4 64.3 -155.2C83.8 -144.1 100.5 -133.1 120.2 -120.2C139.9 -107.4 162.6 -92.7 174.6 -72.3C186.6 -52 187.8 -26 189 0L0 0Z" fill="#17B978"></path></g></svg>